<svg width="657" height="490" viewBox="0 0 657 490" fill="none" xmlns="http://www.w3.org/2000/svg">
<g filter="url(#filter0_dddddd)">
<path d="M652.48 424.625H4V424.949H652.48V424.625Z" fill="#E6E6E6"/>
<path d="M151.672 435.026H107.056V435.351H151.672V435.026Z" fill="#E6E6E6"/>
<path d="M173.551 435.026H160.219V435.351H173.551V435.026Z" fill="#E6E6E6"/>
<path d="M239.334 428.658H214.224V428.983H239.334V428.658Z" fill="#E6E6E6"/>
<path d="M562.484 442.224H506.468V442.549H562.484V442.224Z" fill="#E6E6E6"/>
<path d="M582.25 442.224H574.04V442.549H582.25V442.224Z" fill="#E6E6E6"/>
<path d="M520.644 430.837H399.145V431.161H520.644V430.837Z" fill="#E6E6E6"/>
<path d="M311.38 366.78H60.9496C58.9877 366.777 57.1074 365.995 55.7214 364.607C54.3353 363.218 53.5569 361.337 53.5569 359.375V7.34079C53.574 5.3902 54.36 3.52511 55.7441 2.15064C57.1283 0.776176 58.9989 0.00334147 60.9496 0H311.38C313.344 0 315.227 0.780235 316.616 2.16906C318.005 3.55789 318.785 5.44154 318.785 7.40564V359.375C318.785 361.339 318.005 363.222 316.616 364.611C315.227 366 313.344 366.78 311.38 366.78ZM60.9496 0.259393C59.0737 0.262829 57.2759 1.01042 55.9506 2.33806C54.6254 3.66571 53.8811 5.46493 53.8811 7.34079V359.375C53.8811 361.251 54.6254 363.05 55.9506 364.377C57.2759 365.705 59.0737 366.453 60.9496 366.456H311.38C313.257 366.453 315.056 365.705 316.383 364.378C317.71 363.051 318.458 361.252 318.461 359.375V7.34079C318.458 5.46374 317.71 3.66455 316.383 2.33727C315.056 1.01 313.257 0.262821 311.38 0.259393H60.9496Z" fill="#E6E6E6"/>
<path d="M591.925 366.78H341.482C339.519 366.777 337.637 365.996 336.249 364.607C334.861 363.219 334.08 361.338 334.076 359.375V7.34079C334.097 5.38902 334.886 3.52394 336.272 2.14983C337.658 0.775723 339.53 0.00330503 341.482 0H591.925C593.874 0.00675002 595.741 0.781093 597.122 2.15519C598.504 3.5293 599.288 5.39244 599.305 7.34079V359.375C599.305 361.334 598.528 363.214 597.145 364.602C595.762 365.99 593.885 366.773 591.925 366.78ZM341.482 0.259393C339.605 0.262821 337.806 1.01 336.479 2.33727C335.151 3.66455 334.404 5.46374 334.401 7.34079V359.375C334.404 361.252 335.151 363.051 336.479 364.378C337.806 365.705 339.605 366.453 341.482 366.456H591.925C593.802 366.453 595.601 365.705 596.929 364.378C598.256 363.051 599.003 361.252 599.006 359.375V7.34079C599.003 5.46374 598.256 3.66455 596.929 2.33727C595.601 1.01 593.802 0.262821 591.925 0.259393H341.482Z" fill="#E6E6E6"/>
<path d="M547.452 247.862H456.574V424.625H547.452V247.862Z" fill="#F5F5F5"/>
<path d="M547.452 247.862H539.956V424.625H547.452V247.862Z" fill="#F0F0F0"/>
<path d="M254.339 291.09H463.578V252.907L254.339 252.907V291.09Z" fill="#E0E0E0"/>
<path d="M341.586 424.754H251.875C251.531 424.754 251.201 424.618 250.958 424.375C250.715 424.131 250.578 423.801 250.578 423.457C250.578 423.113 250.715 422.784 250.958 422.54C251.201 422.297 251.531 422.16 251.875 422.16H341.586C354.555 422.16 356.28 418.373 356.28 403.355V213.998C356.28 213.654 356.417 213.325 356.66 213.081C356.904 212.838 357.233 212.701 357.577 212.701C357.921 212.701 358.251 212.838 358.494 213.081C358.738 213.325 358.874 213.654 358.874 213.998V403.355C358.874 419.411 356.384 424.754 341.586 424.754Z" fill="#E0E0E0"/>
<path d="M262.38 261.804L545.403 261.804V248.549L262.38 248.549V261.804Z" fill="#F0F0F0"/>
<path d="M264.43 247.862H173.552V424.625H264.43V247.862Z" fill="#F5F5F5"/>
<path d="M264.417 247.862H256.92V424.625H264.417V247.862Z" fill="#F0F0F0"/>
<path d="M200.074 424.625L200.074 109.853H122.088L122.088 424.625H200.074Z" fill="#FAFAFA"/>
<path d="M195.794 188.474V119.048H126.368V188.474H195.794Z" fill="#F5F5F5"/>
<path d="M145.706 118.114H176.496C176.496 120.023 175.737 121.854 174.387 123.204C173.037 124.554 171.207 125.312 169.298 125.312H152.956C152.006 125.319 151.065 125.138 150.185 124.779C149.306 124.421 148.506 123.891 147.832 123.222C147.158 122.553 146.624 121.757 146.259 120.881C145.894 120.004 145.706 119.064 145.706 118.114Z" fill="#E0E0E0"/>
<path d="M195.781 264.126V194.7H126.355V264.126H195.781Z" fill="#F5F5F5"/>
<path d="M195.794 339.778V270.351H126.368V339.778H195.794Z" fill="#F5F5F5"/>
<path d="M195.794 415.442V346.016H126.368V415.442H195.794Z" fill="#F5F5F5"/>
<path d="M145.706 193.779H176.496C176.492 195.687 175.733 197.516 174.384 198.865C173.034 200.214 171.206 200.974 169.298 200.977H152.956C152.007 200.982 151.066 200.8 150.187 200.44C149.309 200.081 148.51 199.552 147.836 198.883C147.163 198.214 146.628 197.419 146.262 196.543C145.897 195.667 145.708 194.728 145.706 193.779Z" fill="#E0E0E0"/>
<path d="M145.706 269.43H176.496C176.496 271.339 175.737 273.17 174.387 274.52C173.037 275.87 171.207 276.629 169.298 276.629H152.956C152.006 276.635 151.065 276.454 150.185 276.096C149.306 275.737 148.506 275.208 147.832 274.539C147.158 273.87 146.624 273.074 146.259 272.197C145.894 271.32 145.706 270.38 145.706 269.43Z" fill="#E0E0E0"/>
<path d="M145.706 345.082H176.496C176.496 346.991 175.737 348.822 174.387 350.172C173.037 351.522 171.207 352.28 169.298 352.28H152.956C152.006 352.287 151.065 352.106 150.185 351.747C149.306 351.389 148.506 350.86 147.832 350.191C147.158 349.521 146.624 348.726 146.259 347.849C145.894 346.972 145.706 346.032 145.706 345.082Z" fill="#E0E0E0"/>
<path d="M122.088 424.625L122.088 109.853H83.1404L83.1404 424.625H122.088Z" fill="#F0F0F0"/>
<path d="M346.903 247.862H327.306L332.066 209.705H351.676L346.903 247.862Z" fill="#F0F0F0"/>
<path d="M351.248 247.862H331.638L336.411 209.705H356.008L351.248 247.862Z" fill="#F5F5F5"/>
<path d="M393.296 247.862H379.12L376.409 243.543H390.572L393.296 247.862Z" fill="#F0F0F0"/>
<path d="M469.246 247.862H383.452L380.741 243.543H457.677L469.246 247.862Z" fill="#FAFAFA"/>
<path d="M284.74 236.916H290.939C293.842 236.916 296.627 238.069 298.68 240.122C300.732 242.175 301.886 244.959 301.886 247.862H273.768C273.768 246.422 274.052 244.997 274.603 243.667C275.155 242.337 275.964 241.129 276.983 240.113C278.002 239.096 279.212 238.29 280.543 237.741C281.874 237.193 283.3 236.912 284.74 236.916Z" fill="#F0F0F0"/>
<path d="M353.621 228.784H334.024L336.411 209.705H356.008L353.621 228.784Z" fill="#F0F0F0"/>
<path d="M281.55 224.218H420.324C420.597 224.219 420.867 224.161 421.116 224.049C421.365 223.936 421.588 223.772 421.768 223.567C421.948 223.362 422.083 223.121 422.163 222.86C422.243 222.599 422.266 222.323 422.231 222.053L411.544 136.557C411.487 136.091 411.261 135.663 410.91 135.352C410.559 135.042 410.106 134.871 409.637 134.871H270.901C270.63 134.871 270.361 134.928 270.113 135.04C269.865 135.151 269.643 135.314 269.463 135.518C269.283 135.721 269.148 135.961 269.067 136.22C268.987 136.48 268.962 136.754 268.995 137.024L279.682 222.532C279.738 222.991 279.958 223.414 280.301 223.724C280.644 224.034 281.087 224.209 281.55 224.218Z" fill="#F0F0F0"/>
<path d="M283.651 224.218H422.335C422.608 224.219 422.878 224.161 423.127 224.049C423.376 223.936 423.598 223.772 423.778 223.567C423.959 223.362 424.093 223.121 424.173 222.86C424.253 222.599 424.276 222.323 424.241 222.053L413.554 136.557C413.495 136.093 413.268 135.666 412.918 135.356C412.567 135.046 412.116 134.873 411.648 134.871H272.964C272.692 134.871 272.423 134.928 272.175 135.04C271.927 135.151 271.706 135.314 271.525 135.518C271.345 135.721 271.21 135.961 271.13 136.22C271.049 136.48 271.024 136.754 271.057 137.024L281.744 222.532C281.801 222.998 282.027 223.426 282.378 223.737C282.729 224.047 283.182 224.219 283.651 224.218Z" fill="#F5F5F5"/>
<path d="M419.767 219.485L409.767 139.462C409.748 139.332 409.683 139.212 409.582 139.126C409.482 139.04 409.354 138.994 409.222 138.995H276.063C275.987 138.992 275.911 139.007 275.841 139.036C275.771 139.066 275.708 139.111 275.657 139.168C275.606 139.225 275.569 139.293 275.547 139.366C275.525 139.439 275.52 139.516 275.532 139.592L285.531 219.627C285.547 219.757 285.61 219.876 285.708 219.962C285.806 220.048 285.932 220.095 286.063 220.094H419.235C419.311 220.093 419.386 220.076 419.455 220.043C419.524 220.011 419.586 219.965 419.636 219.908C419.686 219.85 419.724 219.783 419.746 219.71C419.769 219.637 419.776 219.56 419.767 219.485Z" fill="#E0E0E0"/>
<path d="M369.081 247.862H337.15V247.46C337.15 246.617 337.485 245.809 338.081 245.213C338.677 244.617 339.485 244.282 340.328 244.282H365.904C366.746 244.282 367.555 244.617 368.151 245.213C368.747 245.809 369.081 246.617 369.081 247.46V247.862Z" fill="#FAFAFA"/>
<path d="M340.873 247.862H319.213V247.46C319.213 246.617 319.548 245.809 320.144 245.213C320.74 244.617 321.548 244.282 322.391 244.282H337.695C338.538 244.282 339.346 244.617 339.942 245.213C340.538 245.809 340.873 246.617 340.873 247.46V247.862Z" fill="#F0F0F0"/>
<path d="M155.044 74.303V74.2381C155.342 73.2394 155.628 72.2278 155.874 71.2162C156.313 71.9155 156.911 72.5017 157.618 72.9275C158.325 73.3533 159.123 73.6068 159.947 73.6674H160.297C162.463 73.4599 164.538 71.3589 165.848 68.0516C165.873 67.9921 165.886 67.9282 165.886 67.8635C165.886 67.7989 165.873 67.735 165.848 67.6755C165.785 67.5571 165.678 67.4684 165.549 67.4291C163.995 67.035 162.375 66.9734 160.794 67.2483C159.214 67.5232 157.71 68.1284 156.38 69.0243C156.574 68.0646 156.743 67.0919 156.886 66.1321C157.228 66.1981 157.575 66.2328 157.923 66.2359C161.451 66.2359 164.045 63.0842 164.175 62.9286C164.22 62.8715 164.252 62.8044 164.267 62.7327C164.282 62.6611 164.28 62.587 164.261 62.5163C164.242 62.4456 164.207 62.3804 164.158 62.3258C164.109 62.2713 164.048 62.229 163.98 62.2023C163.161 61.7955 162.264 61.5667 161.35 61.5309C160.436 61.4951 159.524 61.6532 158.676 61.9948C157.77 62.4556 157.037 63.1972 156.587 64.1089C155.927 62.0794 154.718 60.2716 153.096 58.8849C151.473 57.4981 149.5 56.5861 147.392 56.2493C147.327 56.2338 147.258 56.234 147.193 56.2497C147.128 56.2655 147.067 56.2965 147.016 56.3401C146.962 56.3783 146.917 56.4287 146.885 56.4872C146.854 56.5458 146.836 56.6108 146.834 56.6773C146.653 59.8808 146.757 63.8105 149.156 65.6782C150.16 66.4183 151.386 66.7935 152.632 66.7417C153.748 66.7148 154.856 66.5403 155.926 66.2229C155.583 68.5408 155.085 70.8329 154.435 73.0838C152.087 69.8857 148.757 67.5442 144.954 66.4174C144.833 66.3895 144.707 66.4089 144.601 66.4717C144.495 66.5345 144.417 66.6358 144.383 66.7547C143.657 69.5172 144.033 71.7609 145.46 73.2395C146.185 73.8912 147.034 74.3902 147.957 74.7066C148.879 75.023 149.856 75.1504 150.829 75.0811C151.875 75.0745 152.917 74.9659 153.942 74.7569C153.345 76.6505 152.645 78.5051 151.983 80.269C150.544 78.972 146.303 75.7555 141.685 77.1044C141.561 77.1455 141.459 77.2341 141.4 77.3508C141.375 77.4103 141.362 77.4742 141.362 77.5389C141.362 77.6035 141.375 77.6675 141.4 77.7269C142.697 80.7878 144.085 82.4868 145.875 83.0704C146.352 83.2277 146.851 83.3065 147.353 83.3039C148.724 83.2456 150.059 82.8539 151.244 82.1625C150.258 84.51 149.208 86.7019 148.209 88.6473C147.024 87.4385 145.534 86.5717 143.898 86.138C142.261 85.7043 140.538 85.7199 138.91 86.1831C138.799 86.2051 138.7 86.2679 138.633 86.3591C138.566 86.4503 138.535 86.5633 138.547 86.676C138.662 87.6568 139.032 88.5902 139.622 89.3825C140.212 90.1747 140.999 90.7979 141.906 91.1894C142.59 91.4835 143.327 91.6337 144.072 91.6303C145.105 91.6174 146.119 91.3549 147.029 90.8651C146.017 92.7457 145.083 94.3151 144.357 95.5083H135.538C134.137 93.1089 132.516 90.1259 130.934 86.7797C131.671 86.9998 132.434 87.1176 133.203 87.1299C134.149 87.1416 135.085 86.9354 135.938 86.5273C136.791 86.1191 137.539 85.52 138.124 84.7763C138.708 84.0326 139.113 83.1643 139.308 82.2387C139.503 81.3131 139.482 80.3551 139.247 79.4389C139.217 79.3325 139.149 79.2409 139.056 79.1811C138.962 79.1214 138.851 79.0978 138.741 79.1147C136.94 79.2903 135.208 79.8971 133.691 80.8836C132.174 81.8701 130.917 83.2074 130.026 84.7824C128.988 82.4479 127.977 79.9707 127.095 77.4157C128.217 78.0544 129.475 78.4188 130.765 78.4792C131.277 78.485 131.786 78.4016 132.269 78.2327C134.863 77.3768 136.355 74.2511 137.626 71.0087C137.655 70.9501 137.669 70.8858 137.669 70.8206C137.669 70.7554 137.655 70.6911 137.626 70.6326C137.596 70.573 137.554 70.5204 137.503 70.4779C137.451 70.4355 137.392 70.4043 137.328 70.3861C132.14 68.9335 127.873 73.9268 126.55 75.7166C125.858 73.5571 125.282 71.3621 124.825 69.1411C125.915 69.3544 127.022 69.4672 128.132 69.4783C129.236 69.5589 130.344 69.4117 131.388 69.0458C132.432 68.6799 133.39 68.1031 134.202 67.3513C135.771 65.6911 136.147 63.201 135.304 60.1661C135.289 60.1066 135.263 60.0507 135.225 60.0019C135.188 59.9531 135.142 59.9123 135.088 59.882C135.035 59.8517 134.976 59.8325 134.915 59.8256C134.854 59.8187 134.792 59.8242 134.734 59.8419C130.595 61.1334 126.992 63.7433 124.475 67.2734L124.28 66.0932C124.266 65.9911 124.221 65.8958 124.15 65.8208C123.937 65.0535 123.564 64.3395 123.057 63.7251C122.55 63.1108 121.919 62.6097 121.206 62.2542C120.271 61.8932 119.269 61.7343 118.268 61.788C117.266 61.8416 116.288 62.1066 115.396 62.5655C115.327 62.5951 115.266 62.6395 115.217 62.6956C115.168 62.7517 115.131 62.8179 115.111 62.8897C115.095 62.9601 115.096 63.0334 115.114 63.1033C115.132 63.1732 115.166 63.2378 115.214 63.2918C115.344 63.4604 118.197 66.8325 122.036 66.8325C122.45 66.8271 122.863 66.7837 123.269 66.7028C123.437 67.8052 123.645 68.9076 123.878 69.9971C122.399 69.0234 120.73 68.3743 118.982 68.0926C117.234 67.811 115.446 67.9031 113.736 68.3629C113.608 68.4022 113.5 68.4909 113.438 68.6093C113.412 68.6709 113.399 68.7371 113.399 68.8039C113.399 68.8706 113.412 68.9367 113.438 68.9984C114.929 72.6039 117.238 74.8866 119.624 75.0811H119.948C121.155 75.0811 122.789 74.5234 124.449 72.3056C125.103 74.8274 125.89 77.3125 126.809 79.7502C124.566 78.6867 119.52 76.858 115.915 79.6464C115.865 79.6823 115.823 79.7277 115.792 79.7801C115.76 79.8325 115.74 79.8908 115.731 79.9513C115.723 80.0119 115.727 80.0735 115.743 80.1326C115.758 80.1916 115.786 80.2469 115.824 80.2949C118.159 83.4725 120.311 85.0159 122.426 85.0159C124.176 85.0159 125.849 83.9134 127.523 81.7345C128.482 84.1209 129.52 86.4036 130.544 88.5047C128.301 87.1169 125.837 87.3374 122.931 89.1661C122.864 89.2064 122.808 89.2634 122.77 89.3316C122.731 89.3998 122.711 89.4768 122.711 89.5552C122.706 89.6315 122.721 89.7079 122.755 89.7763C122.789 89.8447 122.841 89.9027 122.905 89.9443C124.636 91.1915 126.679 91.9325 128.807 92.0843C129.904 92.1061 130.98 91.7791 131.88 91.1505C132.71 92.7457 133.528 94.2113 134.28 95.5212H130.272V97.8039H131.725L132.931 109.892H150.686L151.879 97.8039H153.345V95.5212H145.369C146.251 94.0557 147.379 92.0972 148.585 89.8016C148.621 89.7554 148.648 89.7025 148.663 89.646C148.974 89.0624 149.273 88.4658 149.584 87.8432C150.111 88.6413 150.822 89.3015 151.657 89.7685C152.492 90.2356 153.427 90.496 154.383 90.5279C154.581 90.5408 154.781 90.5408 154.979 90.5279C156.036 90.4082 157.039 89.9982 157.876 89.3435C158.714 88.6888 159.354 87.8149 159.726 86.8186C159.764 86.7163 159.765 86.6035 159.726 86.501C159.688 86.3986 159.615 86.3133 159.519 86.2609C158.159 85.4927 156.636 85.0592 155.075 84.996C153.514 84.9329 151.961 85.242 150.544 85.8978C151.218 84.4841 151.841 82.9667 152.515 81.3973C152.566 81.3391 152.598 81.2667 152.606 81.1898C152.787 80.7488 152.956 80.3079 153.138 79.8929C154.681 81.8383 156.211 82.798 157.807 82.798C159.739 82.798 161.697 81.3714 163.799 78.4273C163.872 78.3289 163.903 78.2058 163.886 78.0845C163.869 77.9632 163.805 77.8534 163.708 77.7788C160.401 75.3016 155.926 77.0006 153.825 77.9863C154.253 76.8191 154.642 75.6388 155.005 74.4327L155.044 74.303Z" fill="#E0E0E0"/>
<path d="M525.988 68.8296H459.661V141.654H525.988V68.8296Z" fill="#E0E0E0"/>
<path d="M517.804 71.8127C517.748 71.8259 517.691 71.8259 517.635 71.8127C517.479 71.7089 501.812 62.3968 496.884 62.3968C491.955 62.3968 476.975 71.7089 476.82 71.7997C476.784 71.8231 476.745 71.839 476.703 71.8465C476.661 71.8539 476.618 71.8527 476.577 71.843C476.536 71.8333 476.497 71.8152 476.463 71.79C476.429 71.7647 476.4 71.7327 476.379 71.696C476.335 71.6235 476.322 71.5368 476.341 71.4544C476.36 71.372 476.411 71.3004 476.483 71.255C477.105 70.8659 491.722 61.7483 496.884 61.7483C502.046 61.7483 517.376 70.827 518.024 71.255C518.061 71.2763 518.093 71.3048 518.118 71.3389C518.143 71.3729 518.162 71.4118 518.171 71.4531C518.181 71.4944 518.182 71.5372 518.175 71.579C518.167 71.6208 518.151 71.6606 518.128 71.696C518.091 71.7452 518.041 71.7825 517.983 71.8033C517.926 71.8241 517.863 71.8273 517.804 71.8127Z" fill="#EBEBEB"/>
<path d="M533.16 68.8296H464.654V141.654H533.16V68.8296Z" fill="#F5F5F5"/>
<path d="M527.427 135.908V74.5623H470.4V135.908H527.427Z" fill="white"/>
<path d="M509.958 116.287C516.062 110.184 516.062 100.289 509.958 94.1853C503.855 88.082 493.96 88.082 487.857 94.1853C481.753 100.289 481.753 110.184 487.857 116.287C493.96 122.39 503.855 122.39 509.958 116.287Z" fill="#E0E0E0"/>
<path d="M497.584 336.237H555.714C561.048 336.241 566.17 334.153 569.98 330.42C573.79 326.688 575.984 321.609 576.089 316.277L578.268 209.848C578.308 207.873 577.953 205.91 577.225 204.074C576.496 202.237 575.408 200.565 574.025 199.154C572.643 197.743 570.992 196.623 569.171 195.858C567.349 195.093 565.393 194.699 563.418 194.7H526.973C523.327 194.699 519.809 196.04 517.089 198.468C514.369 200.897 512.638 204.241 512.227 207.864L497.584 336.237Z" fill="#E6E6E6"/>
<path d="M529.308 336.237H467.365C466.595 336.237 465.856 335.931 465.311 335.386C464.766 334.841 464.46 334.102 464.46 333.332V333.059C464.46 330.947 465.299 328.922 466.792 327.428C468.286 325.935 470.311 325.096 472.423 325.096H529.308V336.237Z" fill="#E6E6E6"/>
<path d="M524.418 426.077C524.117 426.084 523.822 425.985 523.585 425.798C523.349 425.611 523.184 425.348 523.121 425.053L504.964 337.534H473.318L455.16 425.053C455.09 425.397 454.886 425.699 454.593 425.892C454.3 426.085 453.942 426.154 453.598 426.084C453.254 426.013 452.952 425.809 452.758 425.516C452.565 425.223 452.496 424.865 452.567 424.521L470.957 335.978C471.018 335.68 471.181 335.413 471.418 335.224C471.655 335.034 471.951 334.934 472.254 334.94H505.975C506.279 334.934 506.575 335.034 506.812 335.224C507.049 335.413 507.212 335.68 507.272 335.978L525.65 424.521C525.719 424.856 525.653 425.205 525.466 425.492C525.279 425.779 524.986 425.98 524.652 426.051C524.575 426.069 524.497 426.078 524.418 426.077Z" fill="#E6E6E6"/>
<path d="M504.692 426.077C504.606 426.09 504.518 426.09 504.432 426.077C504.265 426.043 504.107 425.977 503.965 425.881C503.824 425.786 503.703 425.664 503.609 425.522C503.515 425.38 503.45 425.22 503.418 425.053C503.386 424.886 503.386 424.714 503.421 424.547L521.811 336.003C521.872 335.706 522.035 335.439 522.272 335.25C522.509 335.06 522.805 334.96 523.108 334.966H556.829C557.133 334.96 557.429 335.06 557.666 335.25C557.903 335.439 558.066 335.706 558.126 336.003L576.504 424.547C576.539 424.717 576.54 424.893 576.507 425.063C576.474 425.234 576.408 425.397 576.312 425.542C576.217 425.687 576.093 425.812 575.949 425.909C575.805 426.007 575.643 426.075 575.473 426.11C575.303 426.145 575.127 426.146 574.957 426.113C574.786 426.08 574.623 426.014 574.478 425.918C574.333 425.822 574.208 425.699 574.111 425.555C574.013 425.411 573.945 425.249 573.91 425.079L555.753 337.56H524.081L505.924 425.079C505.858 425.358 505.701 425.608 505.478 425.788C505.255 425.969 504.978 426.071 504.692 426.077Z" fill="#E6E6E6"/>
<path d="M339.24 481.195C478.122 481.195 590.708 474.622 590.708 466.514C590.708 458.405 478.122 451.832 339.24 451.832C200.358 451.832 87.7725 458.405 87.7725 466.514C87.7725 474.622 200.358 481.195 339.24 481.195Z" fill="#F5F5F5"/>
<path d="M361.431 454.53C361.025 454.529 360.631 454.388 360.317 454.13C360.002 453.873 359.787 453.515 359.706 453.116L335.064 331.773H292.147L267.505 453.116C267.388 453.549 267.11 453.92 266.729 454.155C266.348 454.39 265.891 454.472 265.452 454.382C265.013 454.293 264.624 454.041 264.365 453.675C264.106 453.31 263.995 452.86 264.055 452.416L288.983 329.659C289.066 329.262 289.282 328.905 289.596 328.647C289.91 328.39 290.302 328.248 290.708 328.245H336.49C336.897 328.246 337.29 328.387 337.605 328.645C337.919 328.902 338.135 329.26 338.215 329.659L363.156 452.416C363.248 452.873 363.155 453.348 362.897 453.737C362.639 454.126 362.238 454.397 361.781 454.491L361.431 454.53Z" fill="#407BFF"/>
<path d="M292.55 454.53C292.144 454.527 291.751 454.385 291.438 454.128C291.124 453.87 290.907 453.513 290.825 453.116L266.182 331.773H223.266L198.624 453.116C198.591 453.355 198.51 453.585 198.385 453.792C198.26 453.998 198.094 454.177 197.897 454.316C197.701 454.456 197.477 454.554 197.241 454.604C197.005 454.654 196.761 454.655 196.525 454.607C196.289 454.559 196.064 454.463 195.867 454.325C195.669 454.187 195.501 454.01 195.375 453.804C195.248 453.599 195.165 453.37 195.13 453.131C195.096 452.892 195.11 452.649 195.174 452.416L220.114 329.659C220.195 329.26 220.411 328.902 220.725 328.645C221.039 328.387 221.433 328.246 221.839 328.245H267.622C268.027 328.246 268.419 328.388 268.731 328.646C269.043 328.904 269.256 329.261 269.334 329.659L294.274 452.416C294.366 452.873 294.273 453.348 294.016 453.737C293.758 454.126 293.357 454.397 292.9 454.491L292.55 454.53Z" fill="#407BFF"/>
<path d="M302.186 330.022H223.331C216.093 330.023 209.143 327.187 203.973 322.121C198.803 317.055 195.826 310.165 195.68 302.928L192.748 183.089C192.693 180.41 193.173 177.748 194.16 175.257C195.146 172.766 196.62 170.497 198.494 168.582C200.369 166.668 202.607 165.147 205.076 164.108C207.546 163.069 210.198 162.534 212.877 162.532H262.317C267.265 162.536 272.039 164.359 275.73 167.654C279.42 170.95 281.769 175.488 282.329 180.404L302.186 330.022Z" fill="#407BFF"/>
<path d="M259.179 314.847H336.348C339.213 314.847 341.961 315.986 343.987 318.012C346.013 320.038 347.152 322.786 347.152 325.651V326.027C347.152 327.059 346.742 328.049 346.012 328.778C345.282 329.508 344.293 329.918 343.261 329.918H259.179V314.847Z" fill="#407BFF"/>
<g opacity="0.3">
<path opacity="0.3" d="M361.431 454.53C361.025 454.529 360.631 454.388 360.317 454.13C360.002 453.873 359.787 453.514 359.706 453.116L335.064 331.773H292.147L267.505 453.116C267.388 453.549 267.11 453.92 266.729 454.155C266.348 454.39 265.891 454.471 265.452 454.382C265.013 454.293 264.624 454.04 264.365 453.675C264.106 453.31 263.995 452.86 264.055 452.416L288.983 329.659C289.066 329.261 289.282 328.905 289.596 328.647C289.91 328.39 290.302 328.248 290.708 328.245H336.49C336.897 328.246 337.29 328.387 337.605 328.644C337.919 328.902 338.135 329.26 338.215 329.659L363.156 452.416C363.248 452.873 363.155 453.348 362.897 453.737C362.639 454.126 362.238 454.397 361.781 454.491L361.431 454.53Z" fill="black"/>
<path opacity="0.3" d="M292.55 454.53C292.144 454.527 291.751 454.385 291.438 454.127C291.124 453.87 290.907 453.513 290.825 453.116L266.182 331.773H223.266L198.624 453.116C198.591 453.355 198.51 453.585 198.385 453.792C198.26 453.998 198.094 454.177 197.897 454.316C197.701 454.456 197.477 454.554 197.241 454.604C197.005 454.654 196.761 454.655 196.525 454.607C196.289 454.559 196.064 454.463 195.867 454.325C195.669 454.187 195.501 454.009 195.375 453.804C195.248 453.599 195.165 453.37 195.13 453.131C195.096 452.892 195.11 452.649 195.174 452.416L220.114 329.659C220.195 329.26 220.411 328.902 220.725 328.644C221.039 328.387 221.433 328.246 221.839 328.245H267.622C268.027 328.246 268.419 328.388 268.731 328.646C269.043 328.903 269.256 329.261 269.334 329.659L294.274 452.416C294.366 452.873 294.273 453.348 294.016 453.737C293.758 454.126 293.357 454.397 292.9 454.491L292.55 454.53Z" fill="black"/>
<path opacity="0.3" d="M302.186 330.022H223.331C216.093 330.023 209.143 327.187 203.973 322.121C198.803 317.055 195.826 310.165 195.68 302.928L192.748 183.089C192.693 180.41 193.173 177.748 194.16 175.257C195.146 172.766 196.62 170.497 198.494 168.582C200.369 166.668 202.607 165.147 205.076 164.108C207.546 163.069 210.198 162.534 212.877 162.532H262.317C267.265 162.536 272.039 164.359 275.73 167.654C279.42 170.95 281.769 175.488 282.329 180.404L302.186 330.022Z" fill="black"/>
<path opacity="0.3" d="M259.179 314.847H336.348C339.213 314.847 341.961 315.986 343.987 318.012C346.013 320.038 347.152 322.786 347.152 325.651V326.027C347.152 327.059 346.742 328.049 346.012 328.778C345.282 329.508 344.293 329.918 343.261 329.918H259.179V314.847Z" fill="black"/>
</g>
<path d="M280.241 155.918C280.241 155.918 291.266 170.314 284.132 198.977C276.999 227.64 240.191 212.076 237.96 186.241C235.367 155.788 269.554 176.786 275.572 149.705L280.241 155.918Z" fill="#263238"/>
<path d="M272.239 147.371C267.453 150.743 265.56 155.646 270.851 160.444C276.143 165.243 283.691 165.087 285.974 163.116C288.257 161.145 287.803 151.132 287.803 151.132L272.239 147.371Z" fill="#407BFF"/>
<path opacity="0.8" d="M272.239 147.371C267.453 150.743 265.56 155.646 270.851 160.444C276.143 165.243 283.691 165.087 285.974 163.116C288.257 161.145 287.803 151.132 287.803 151.132L272.239 147.371Z" fill="white"/>
<path d="M332.677 211.168C332.807 211.752 333.028 212.66 333.235 213.425L333.858 215.863C334.299 217.498 334.778 219.132 335.284 220.766C336.244 224.06 337.308 227.342 338.423 230.623C339.538 233.904 340.68 237.108 341.925 240.428C342.534 242.049 343.144 243.683 343.792 245.304L344.545 247.25C344.695 247.583 344.891 247.893 345.128 248.171C346.974 250.038 349.224 251.458 351.704 252.321C354.733 253.54 357.856 254.512 361.042 255.226C364.336 255.991 367.721 256.627 371.145 257.159C374.569 257.69 378.084 258.118 381.456 258.456L381.573 265.433C374.174 266.199 366.716 266.199 359.317 265.433C355.45 265.035 351.626 264.292 347.891 263.215C345.868 262.605 343.898 261.828 342.003 260.894C339.82 259.833 337.823 258.428 336.088 256.731C335.082 255.728 334.21 254.599 333.494 253.372C333.3 253.06 333.131 252.71 332.95 252.386L332.613 251.686L332.016 250.389C331.212 248.741 330.408 247.094 329.668 245.421C328.164 242.075 326.698 238.703 325.388 235.266C324.079 231.829 322.795 228.366 321.705 224.89C321.173 223.1 320.655 221.324 320.175 219.495L319.461 216.758C319.254 215.773 319.059 214.956 318.852 213.788L332.677 211.168Z" fill="#E58A7B"/>
<path d="M328.268 196.435C333.832 197.849 337.71 220.727 337.71 220.727L322.392 231.103C322.392 231.103 307.698 208.017 312.017 201.908C316.439 195.631 320.149 194.412 328.268 196.435Z" fill="#407BFF"/>
<path opacity="0.5" d="M328.268 196.435C333.832 197.849 337.71 220.727 337.71 220.727L322.392 231.103C322.392 231.103 307.698 208.017 312.017 201.908C316.439 195.631 320.149 194.412 328.268 196.435Z" fill="white"/>
<path opacity="0.2" d="M326.27 202.193L312.951 212.751C315.545 219.164 318.7 225.335 322.38 231.194L333.002 223.969L326.27 202.193Z" fill="#407BFF"/>
<path d="M328.268 196.435C328.268 196.435 334.752 198.692 321.783 277.845H267.025C267.946 255.55 267.972 241.803 257.324 196.033C264.992 194.454 272.763 193.431 280.578 192.972C288.864 192.381 297.181 192.381 305.467 192.972C316.154 193.997 328.268 196.435 328.268 196.435Z" fill="#407BFF"/>
<path opacity="0.5" d="M328.268 196.435C328.268 196.435 334.752 198.692 321.783 277.845H267.025C267.946 255.55 267.972 241.803 257.324 196.033C264.992 194.454 272.763 193.431 280.578 192.972C288.864 192.381 297.181 192.381 305.467 192.972C316.154 193.997 328.268 196.435 328.268 196.435Z" fill="white"/>
<path d="M379.446 258.391L389.004 248.689L390.301 262.359C390.301 262.359 383.129 267.21 378.175 264.603L379.446 258.391Z" fill="#E58A7B"/>
<path d="M400.288 247.25L400.716 258.741L390.288 262.359L389.03 248.689L400.288 247.25Z" fill="#E58A7B"/>
<path d="M383.933 441.949H397.422L399.497 410.706H386.008L383.933 441.949Z" fill="#E58A7B"/>
<path d="M331.731 441.949H345.219L349.551 410.706H336.063L331.731 441.949Z" fill="#E58A7B"/>
<path d="M346.062 440.38H330.901C330.639 440.375 330.385 440.465 330.187 440.635C329.988 440.805 329.859 441.042 329.824 441.301L328.099 453.298C328.068 453.601 328.101 453.907 328.196 454.196C328.291 454.486 328.445 454.752 328.649 454.978C328.853 455.204 329.103 455.385 329.381 455.509C329.659 455.633 329.96 455.697 330.265 455.697C335.544 455.606 338.047 455.295 344.752 455.295C348.85 455.295 359.369 455.723 365.037 455.723C370.704 455.723 371.003 450.12 368.642 449.614C358.072 447.332 351.872 444.206 348.306 441.21C347.68 440.676 346.885 440.381 346.062 440.38Z" fill="#263238"/>
<path d="M398.472 440.38H383.337C383.076 440.377 382.823 440.469 382.625 440.639C382.428 440.808 382.298 441.043 382.26 441.301L380.535 453.298C380.504 453.601 380.537 453.907 380.632 454.196C380.727 454.486 380.881 454.752 381.085 454.978C381.29 455.205 381.539 455.385 381.817 455.509C382.095 455.633 382.396 455.697 382.701 455.697C387.98 455.606 390.483 455.295 397.188 455.295C401.299 455.295 409.769 455.723 415.436 455.723C421.104 455.723 421.402 450.12 419.042 449.615C408.472 447.332 404.308 444.206 400.755 441.21C400.117 440.671 399.307 440.377 398.472 440.38Z" fill="#263238"/>
<path d="M317.516 137.709C322.367 138.02 324.831 162.351 310.603 160.937C296.376 159.523 317.516 137.709 317.516 137.709Z" fill="#263238"/>
<path d="M399.497 410.706L398.42 426.814H384.932L385.995 410.706H399.497Z" fill="#CF6F64"/>
<path d="M336.063 410.706H349.564L347.32 426.814H333.819L336.063 410.706Z" fill="#CF6F64"/>
<path opacity="0.2" d="M262.797 221.479C264.094 228.12 265.015 233.852 265.715 239.014L268.919 214.229L262.797 221.479Z" fill="#407BFF"/>
<path d="M283.043 165.01C284.612 173.012 286.181 187.68 280.579 193.024C280.579 193.024 282.77 201.143 297.647 201.143C314.001 201.143 305.428 193.024 305.428 193.024C296.492 190.897 296.726 184.27 298.282 178.057L283.043 165.01Z" fill="#E58A7B"/>
<path d="M294.689 202.881L299.67 201.091L299.008 199.729L294.689 202.881Z" fill="#263238"/>
<path d="M304.352 201.843L299.67 201.091L300.682 199.574L304.352 201.843Z" fill="#263238"/>
<path d="M282.394 189.25L279.009 192.544C278.908 192.648 278.851 192.788 278.851 192.933C278.851 193.078 278.908 193.218 279.009 193.322L293.276 209.573C293.954 205.714 296.021 202.235 299.086 199.794C287.284 195.332 284.21 190.715 283.159 189.418C283.135 189.343 283.091 189.275 283.033 189.222C282.974 189.169 282.903 189.132 282.825 189.115C282.748 189.098 282.667 189.101 282.592 189.125C282.516 189.148 282.448 189.192 282.394 189.25Z" fill="#407BFF"/>
<path d="M302.782 191.74L306.985 192.881C307.11 192.916 307.225 192.984 307.316 193.077C307.407 193.171 307.472 193.287 307.503 193.413C308.691 198.743 308.467 204.291 306.855 209.508C306.258 207.304 304.261 202.025 300.681 199.574C304.572 196.889 303.003 193.426 302.445 192.116C302.427 192.067 302.423 192.015 302.432 191.963C302.442 191.912 302.466 191.865 302.5 191.826C302.535 191.787 302.58 191.759 302.629 191.744C302.679 191.729 302.732 191.727 302.782 191.74Z" fill="#407BFF"/>
<path d="M289.281 170.327L298.36 178.044C297.983 179.49 297.727 180.965 297.595 182.454C294.184 181.961 289.502 178.226 289.138 174.672C288.916 173.227 288.965 171.754 289.281 170.327Z" fill="#CF6F64"/>
<path d="M282.174 143.921C280.63 157.215 279.684 162.818 285.131 170.755C293.302 182.7 309.981 181.688 315.467 169.121C320.408 157.811 322.094 137.994 310.162 130.42C307.538 128.744 304.528 127.768 301.42 127.583C298.311 127.399 295.207 128.012 292.403 129.365C289.598 130.718 287.186 132.765 285.396 135.313C283.605 137.861 282.496 140.824 282.174 143.921Z" fill="#E58A7B"/>
<path d="M312.575 121.964C290.591 113.287 274.081 123.079 270.67 136.995C265.313 158.603 282.42 160.12 282.42 160.12L284.56 154.595C287.634 156.45 296.233 155.633 293.639 139.589C292.109 130.51 303.6 143.156 318.178 141.742C322.055 141.366 327.36 127.8 312.575 121.964Z" fill="#263238"/>
<path d="M320.058 127.307C317.166 122.858 311.252 119.045 298.995 117.243C298.995 117.243 305.363 118.682 307.426 123.338C309.488 127.994 323.547 132.663 320.058 127.307Z" fill="#263238"/>
<path d="M277.946 155.425C277.856 156.704 278.02 157.987 278.427 159.202C278.834 160.418 279.477 161.54 280.319 162.507C282.589 165.1 285.572 163.505 286.506 160.392C287.336 157.578 287.167 152.857 284.132 151.43C281.097 150.004 278.192 152.261 277.946 155.425Z" fill="#E58A7B"/>
<path d="M321.822 277.897C321.822 277.897 412.272 286.314 411.39 327.441C410.469 370.241 401.313 423.701 401.313 423.701H382.623C382.623 423.701 381.028 378.463 380.483 336.325C380.211 314.38 292.809 309.984 292.809 309.984L281.525 277.897H321.822Z" fill="#263238"/>
<path d="M307.348 277.897C307.348 277.897 365.802 297.287 367.28 321.28C369.991 365.455 350.575 423.74 350.575 423.74H332.172C332.172 423.74 333.222 385.091 335.414 345.067C338.189 294.77 249.451 344.366 267.025 277.936L307.348 277.897Z" fill="#263238"/>
<path d="M301.408 151.171C301.213 152.235 301.628 153.207 302.329 153.337C303.029 153.467 303.742 152.689 303.937 151.625C304.131 150.561 303.716 149.576 303.016 149.459C302.316 149.342 301.628 150.095 301.408 151.171Z" fill="#263238"/>
<path d="M313.508 153.337C313.314 154.4 313.729 155.373 314.429 155.503C315.13 155.633 315.856 154.854 316.05 153.791C316.245 152.727 315.83 151.742 315.13 151.625C314.429 151.508 313.703 152.26 313.508 153.337Z" fill="#263238"/>
<path d="M314.805 151.625L317.516 151.34C317.516 151.34 315.895 153.116 314.805 151.625Z" fill="#263238"/>
<path d="M309.981 154.595C310.5 157.209 311.372 159.739 312.574 162.117C311.964 162.395 311.3 162.539 310.629 162.539C309.958 162.539 309.294 162.395 308.684 162.117L309.981 154.595Z" fill="#DF5753"/>
<path d="M304.222 165.58C302.799 165.355 301.449 164.796 300.282 163.951C299.114 163.106 298.163 161.998 297.504 160.717C297.482 160.667 297.48 160.61 297.5 160.559C297.519 160.508 297.558 160.467 297.608 160.444C297.659 160.426 297.716 160.428 297.766 160.45C297.817 160.472 297.857 160.511 297.88 160.561C298.504 161.772 299.402 162.821 300.503 163.622C301.604 164.424 302.878 164.957 304.222 165.178C304.276 165.191 304.323 165.223 304.355 165.269C304.386 165.314 304.399 165.37 304.391 165.425C304.381 165.464 304.36 165.5 304.33 165.528C304.3 165.556 304.262 165.574 304.222 165.58Z" fill="#263238"/>
<path d="M298.567 146.385C298.511 146.387 298.455 146.377 298.403 146.354C298.352 146.332 298.306 146.298 298.269 146.256C298.23 146.219 298.198 146.175 298.177 146.126C298.156 146.077 298.145 146.024 298.145 145.97C298.145 145.917 298.156 145.864 298.177 145.815C298.198 145.765 298.23 145.721 298.269 145.685C298.968 145.002 299.82 144.497 300.755 144.213C301.689 143.929 302.678 143.873 303.639 144.051C303.74 144.081 303.826 144.149 303.879 144.24C303.932 144.332 303.948 144.441 303.924 144.544C303.912 144.596 303.889 144.645 303.858 144.689C303.826 144.732 303.786 144.769 303.74 144.797C303.694 144.825 303.643 144.843 303.59 144.851C303.537 144.858 303.483 144.855 303.431 144.842C302.602 144.695 301.751 144.75 300.947 145C300.144 145.251 299.412 145.69 298.814 146.282C298.744 146.341 298.658 146.377 298.567 146.385Z" fill="#263238"/>
<path d="M320.123 148.512C320.042 148.515 319.963 148.493 319.896 148.449C319.828 148.405 319.776 148.341 319.747 148.266C319.43 147.487 318.933 146.795 318.298 146.245C317.662 145.695 316.905 145.303 316.089 145.101C315.984 145.082 315.89 145.023 315.827 144.936C315.764 144.849 315.737 144.741 315.752 144.634C315.771 144.526 315.832 144.43 315.922 144.366C316.012 144.303 316.124 144.278 316.232 144.297C317.182 144.517 318.065 144.964 318.806 145.598C319.546 146.233 320.123 147.037 320.486 147.942C320.53 148.041 320.533 148.155 320.494 148.257C320.455 148.358 320.378 148.441 320.279 148.486L320.123 148.512Z" fill="#263238"/>
<path d="M265.508 215.604C264.328 219.495 263.057 223.386 261.928 227.38C260.8 231.375 259.607 235.266 258.582 239.222C257.558 243.177 256.585 247.094 255.859 250.894C255.508 252.814 255.184 254.72 255.003 256.51C254.899 257.405 254.847 258.248 254.834 259.026C254.834 259.208 254.834 259.026 254.704 258.728C254.546 258.376 254.326 258.056 254.056 257.781C253.394 257.21 253.148 257.314 253.446 257.405C253.989 257.537 254.548 257.594 255.106 257.574C256.852 257.514 258.589 257.292 260.294 256.912C264.157 256.061 267.965 254.974 271.694 253.657C279.359 251.063 287.141 247.898 294.716 244.669L298.062 250.778C290.876 255.488 283.365 259.684 275.585 263.332C271.557 265.232 267.401 266.849 263.148 268.17C260.779 268.891 258.347 269.382 255.885 269.635C254.347 269.793 252.795 269.754 251.267 269.519C250.253 269.367 249.264 269.083 248.323 268.676C247.108 268.15 246.006 267.392 245.081 266.445C243.282 264.549 242.252 262.053 242.189 259.441C242.124 258.144 242.111 256.847 242.189 255.68C242.279 253.281 242.5 251.011 242.798 248.793C243.421 244.358 244.225 240.078 245.211 235.824C246.196 231.57 247.247 227.458 248.401 223.334C249.555 219.21 250.8 215.163 252.292 211.039L265.508 215.604Z" fill="#E58A7B"/>
<path d="M350.679 442.65C349.484 442.62 348.296 442.455 347.139 442.157C347.095 442.149 347.055 442.128 347.024 442.097C346.993 442.065 346.972 442.026 346.963 441.982C346.955 441.939 346.96 441.894 346.977 441.854C346.995 441.813 347.024 441.779 347.061 441.755C347.515 441.457 351.561 438.837 353.105 439.524C353.266 439.597 353.405 439.713 353.506 439.86C353.606 440.006 353.665 440.177 353.675 440.354C353.74 440.642 353.728 440.942 353.642 441.224C353.555 441.506 353.397 441.76 353.182 441.962C352.455 442.479 351.569 442.723 350.679 442.65ZM347.761 441.846C350.264 442.365 352.145 442.3 352.871 441.625C353.029 441.472 353.145 441.28 353.209 441.069C353.273 440.858 353.281 440.634 353.234 440.419C353.229 440.317 353.197 440.218 353.139 440.134C353.082 440.049 353.003 439.982 352.91 439.939C351.924 439.498 349.188 440.964 347.761 441.846Z" fill="#407BFF"/>
<path d="M347.191 442.17H347.074C347.038 442.149 347.008 442.119 346.987 442.082C346.966 442.046 346.956 442.004 346.957 441.962C346.957 441.807 346.957 437.968 348.41 436.697C348.58 436.534 348.786 436.412 349.011 436.343C349.236 436.273 349.474 436.256 349.707 436.295C349.94 436.293 350.168 436.372 350.35 436.518C350.532 436.665 350.657 436.87 350.705 437.099C350.978 438.5 348.721 441.366 347.307 442.17H347.191ZM349.473 436.697C349.188 436.699 348.914 436.81 348.708 437.008C347.683 437.916 347.476 440.484 347.411 441.508C348.708 440.575 350.446 438.214 350.225 437.164C350.225 436.995 350.096 436.775 349.629 436.71L349.473 436.697Z" fill="#407BFF"/>
<path d="M403.543 442.65C402.118 442.618 400.699 442.458 399.302 442.17C399.257 442.158 399.215 442.134 399.183 442.099C399.151 442.065 399.129 442.022 399.121 441.975C399.114 441.928 399.123 441.879 399.146 441.837C399.17 441.795 399.206 441.761 399.25 441.742C399.847 441.431 405.177 438.707 406.799 439.589C406.939 439.667 407.058 439.779 407.145 439.915C407.231 440.051 407.281 440.207 407.292 440.367C407.328 440.637 407.298 440.912 407.202 441.168C407.107 441.424 406.951 441.652 406.747 441.833C405.804 442.463 404.673 442.751 403.543 442.65ZM400.054 441.846C401.792 442.144 405.242 442.572 406.436 441.508C406.584 441.369 406.698 441.197 406.768 441.005C406.838 440.814 406.862 440.608 406.838 440.406C406.836 440.318 406.812 440.232 406.766 440.157C406.721 440.081 406.656 440.02 406.578 439.978C405.515 439.407 401.935 440.925 400.054 441.846Z" fill="#407BFF"/>
<path d="M399.354 442.17C399.312 442.183 399.267 442.183 399.224 442.17C399.193 442.145 399.167 442.114 399.149 442.078C399.131 442.042 399.122 442.003 399.121 441.962C399.121 441.807 399.445 438.214 401.105 436.775C401.338 436.576 401.608 436.428 401.901 436.339C402.193 436.25 402.5 436.221 402.804 436.256C403.634 436.334 403.867 436.749 403.932 437.073C404.166 438.564 401.027 441.418 399.445 442.131L399.354 442.17ZM402.558 436.697C402.131 436.695 401.72 436.852 401.403 437.138C400.184 438.149 399.756 440.575 399.626 441.547C401.325 440.601 403.647 438.162 403.517 437.164C403.517 437.06 403.517 436.775 402.804 436.71L402.558 436.697Z" fill="#407BFF"/>
<path d="M294.404 244.876L307.192 241.634L301.097 253.916C301.097 253.916 292.446 254.292 289.593 249.468L294.404 244.876Z" fill="#E58A7B"/>
<path d="M317.529 246.29L311.874 256.303L301.096 253.916L307.192 241.634L317.529 246.29Z" fill="#E58A7B"/>
<path d="M302.692 149.459L305.402 149.174C305.402 149.174 303.729 150.951 302.692 149.459Z" fill="#263238"/>
<path d="M266.208 274.681L265.767 279.583C265.586 279.972 266.027 280.361 266.662 280.361H322.094C322.587 280.361 322.989 280.115 323.028 279.804L323.521 274.901C323.521 274.564 323.119 274.278 322.587 274.278H267.103C266.932 274.264 266.76 274.293 266.604 274.364C266.447 274.434 266.311 274.543 266.208 274.681Z" fill="#407BFF"/>
<path d="M273.666 280.893H272.174C271.876 280.893 271.656 280.737 271.669 280.556L272.369 274.175C272.369 273.993 272.654 273.838 272.953 273.838H274.392C274.69 273.838 274.911 273.993 274.898 274.175L274.198 280.556C274.211 280.737 273.951 280.893 273.666 280.893Z" fill="#263238"/>
<path d="M317.918 280.893H316.427C316.128 280.893 315.908 280.737 315.921 280.556L316.621 274.175C316.621 273.993 316.906 273.838 317.205 273.838H318.683C318.982 273.838 319.202 273.993 319.189 274.175L318.489 280.556C318.489 280.737 318.203 280.893 317.918 280.893Z" fill="#263238"/>
<path d="M295.792 280.893H294.3C294.002 280.893 293.782 280.737 293.794 280.556L294.495 274.175C294.495 273.993 294.78 273.838 295.078 273.838H296.557C296.855 273.838 297.076 273.993 297.063 274.175L296.362 280.556C296.337 280.737 296.09 280.893 295.792 280.893Z" fill="#263238"/>
<path d="M257.324 196.085C251.825 197.758 245.236 216.655 245.236 216.655L262.94 233.943C262.94 233.943 274.301 216.11 272.019 209.015C269.593 201.623 263.588 194.191 257.324 196.085Z" fill="#407BFF"/>
<path opacity="0.5" d="M257.324 196.085C251.825 197.758 245.236 216.655 245.236 216.655L262.94 233.943C262.94 233.943 274.301 216.11 272.019 209.015C269.593 201.623 263.588 194.191 257.324 196.085Z" fill="white"/>
<path d="M551.501 264.422H448.315V465.126H551.501V264.422Z" fill="#407BFF"/>
<path opacity="0.6" d="M551.501 264.422H448.315V465.126H551.501V264.422Z" fill="white"/>
<path d="M351.6 264.422H248.414V465.126H351.6V264.422Z" fill="#407BFF"/>
<path opacity="0.6" d="M351.6 264.422H248.414V465.126H351.6V264.422Z" fill="white"/>
<path d="M555.366 264.422H546.857V465.126H555.366V264.422Z" fill="#407BFF"/>
<path opacity="0.3" d="M555.366 264.422H546.857V465.126H555.366V264.422Z" fill="black"/>
<path d="M352.832 279.479H557.999V264.422H352.832V279.479Z" fill="#407BFF"/>
<path opacity="0.3" d="M352.832 279.479H557.999V264.422H352.832V279.479Z" fill="black"/>
<path d="M355.478 264.422H346.97V465.126H355.478V264.422Z" fill="#407BFF"/>
<path opacity="0.3" d="M355.478 264.422H346.97V465.126H355.478V264.422Z" fill="black"/>
<path d="M352.339 312.435H551.112V269.078H352.339V312.435Z" fill="#407BFF"/>
<path opacity="0.3" d="M352.339 312.435H551.112V269.078H352.339V312.435Z" fill="black"/>
<path d="M551.553 470.963H494.266C490.377 470.959 486.648 469.413 483.897 466.662C481.147 463.912 479.601 460.183 479.597 456.294V275.55C479.597 272.11 478.231 268.811 475.799 266.379C473.366 263.946 470.068 262.58 466.628 262.58H449.482V261.283H466.615C470.398 261.283 474.027 262.786 476.703 265.462C479.378 268.137 480.881 271.766 480.881 275.55V456.294C480.885 459.839 482.295 463.238 484.802 465.745C487.309 468.252 490.708 469.662 494.253 469.666H551.553C552.528 469.667 553.479 469.361 554.27 468.791C555.061 468.221 555.651 467.415 555.957 466.489C556.264 465.564 556.27 464.565 555.975 463.635C555.68 462.706 555.099 461.893 554.315 461.313L555.08 460.276C556.081 461.018 556.822 462.057 557.199 463.245C557.575 464.433 557.568 465.71 557.177 466.893C556.786 468.077 556.033 469.107 555.023 469.837C554.013 470.568 552.799 470.962 551.553 470.963Z" fill="#407BFF"/>
<path opacity="0.3" d="M551.553 470.963H494.266C490.377 470.959 486.648 469.413 483.897 466.662C481.147 463.912 479.601 460.183 479.597 456.294V275.55C479.597 272.11 478.231 268.811 475.799 266.379C473.366 263.946 470.068 262.58 466.628 262.58H449.482V261.283H466.615C470.398 261.283 474.027 262.786 476.703 265.462C479.378 268.137 480.881 271.766 480.881 275.55V456.294C480.885 459.839 482.295 463.238 484.802 465.745C487.309 468.252 490.708 469.662 494.253 469.666H551.553C552.528 469.667 553.479 469.361 554.27 468.791C555.061 468.221 555.651 467.415 555.957 466.489C556.264 465.564 556.27 464.565 555.975 463.635C555.68 462.706 555.099 461.893 554.315 461.313L555.08 460.276C556.081 461.018 556.822 462.057 557.199 463.245C557.575 464.433 557.568 465.71 557.177 466.893C556.786 468.077 556.033 469.107 555.023 469.837C554.013 470.568 552.799 470.962 551.553 470.963Z" fill="black"/>
<path d="M559.905 323.641H558.608V348.711H559.905V323.641Z" fill="#407BFF"/>
<path opacity="0.3" d="M559.905 323.641H558.608V348.711H559.905V323.641Z" fill="black"/>
<path d="M559.905 308.843H558.608V315.431H559.905V308.843Z" fill="#407BFF"/>
<path opacity="0.3" d="M559.905 308.843H558.608V315.431H559.905V308.843Z" fill="black"/>
<path d="M464.916 204.502H368.759L354.83 261.283H450.973L464.916 204.502Z" fill="#407BFF"/>
<path opacity="0.4" d="M464.916 204.502H368.759L354.83 261.283H450.973L464.916 204.502Z" fill="white"/>
<path d="M357.774 261.283L357.385 264.421H319.656L320.045 261.283H357.774Z" fill="#407BFF"/>
<path opacity="0.4" d="M357.774 261.283L357.385 264.421H319.656L320.045 261.283H357.774Z" fill="white"/>
<path d="M453.93 261.283L453.541 264.421H357.385L357.774 261.283H453.93Z" fill="#407BFF"/>
<path opacity="0.5" d="M453.93 261.283L453.541 264.421H357.385L357.774 261.283H453.93Z" fill="black"/>
<path d="M467.873 204.502H371.716L357.787 261.283H453.93L467.873 204.502Z" fill="#407BFF"/>
<path opacity="0.5" d="M467.873 204.502H371.716L357.787 261.283H453.93L467.873 204.502Z" fill="black"/>
<path d="M505.005 250.116C505.005 250.116 490.855 225.72 510.439 206.305C510.439 206.305 515.562 209.651 515.484 214.087C515.406 218.522 509.998 219.715 511.152 223.451C512.307 227.186 517.43 230.882 514.07 233.982C510.711 237.082 514.615 239.831 514.382 243.618C514.148 247.405 505.005 250.116 505.005 250.116Z" fill="#407BFF"/>
<path d="M506.081 252.347C506.081 252.347 511.814 224.735 487.068 212.504C487.068 212.504 483.255 217.29 484.746 221.583C486.238 225.876 491.724 225.189 491.802 229.118C491.879 233.048 488.196 238.132 492.359 240.013C496.523 241.893 493.656 245.745 495.096 249.273C496.536 252.801 506.081 252.347 506.081 252.347Z" fill="#407BFF"/>
<path opacity="0.5" d="M506.081 252.347C506.081 252.347 511.814 224.735 487.068 212.504C487.068 212.504 483.255 217.29 484.746 221.583C486.238 225.876 491.724 225.189 491.802 229.118C491.879 233.048 488.196 238.132 492.359 240.013C496.523 241.893 493.656 245.745 495.096 249.273C496.536 252.801 506.081 252.347 506.081 252.347Z" fill="black"/>
<path d="M484.396 246.225C484.396 246.225 484.876 264.383 502.917 264.383C520.957 264.383 521.424 246.225 521.424 246.225H484.396Z" fill="#407BFF"/>
<path opacity="0.5" d="M484.396 246.225C484.396 246.225 484.876 264.383 502.917 264.383C520.957 264.383 521.424 246.225 521.424 246.225H484.396Z" fill="black"/>
<path d="M363.307 147.2L394.938 176.407L415.278 138.462L403.051 140.518L395.744 97.0558L368.227 101.682L375.535 145.144L363.307 147.2Z" fill="#407BFF"/>
<path d="M425.007 119.4C425.007 109.769 428.833 100.532 435.644 93.7217C442.454 86.9113 451.691 83.0853 461.322 83.0853V92.5402C457.797 92.5385 454.306 93.2313 451.049 94.5791C447.792 95.9268 444.832 97.9032 442.339 100.395C439.846 102.887 437.868 105.846 436.519 109.102C435.17 112.359 434.475 115.849 434.475 119.374L425.007 119.4Z" fill="#407BFF"/>
<path d="M425.007 119.4H434.475C434.475 126.52 437.304 133.349 442.338 138.384C447.373 143.419 454.202 146.247 461.322 146.247C466.033 146.256 470.661 145.011 474.733 142.642L479.48 150.903C473.959 154.091 467.697 155.769 461.322 155.769C454.947 155.768 448.685 154.09 443.164 150.903C437.643 147.715 433.059 143.131 429.872 137.61C426.685 132.089 425.007 125.827 425.007 119.452V119.4Z" fill="#407BFF"/>
<path opacity="0.5" d="M425.007 119.4H434.475C434.475 126.52 437.304 133.349 442.338 138.384C447.373 143.419 454.202 146.247 461.322 146.247C466.033 146.256 470.661 145.011 474.733 142.642L479.48 150.903C473.959 154.091 467.697 155.769 461.322 155.769C454.947 155.768 448.685 154.09 443.164 150.903C437.643 147.715 433.059 143.131 429.872 137.61C426.685 132.089 425.007 125.827 425.007 119.452V119.4Z" fill="white"/>
<path d="M461.322 92.5401V83.0593C469.342 83.0287 477.146 85.6536 483.517 90.5244C489.888 95.3953 494.468 102.238 496.541 109.985C498.615 117.732 498.065 125.948 494.979 133.35C491.892 140.752 486.443 146.924 479.48 150.903L474.746 142.694C479.902 139.758 483.94 135.196 486.228 129.721C488.516 124.246 488.925 118.168 487.391 112.436C485.857 106.704 482.466 101.642 477.75 98.0424C473.033 94.4425 467.256 92.5076 461.322 92.5401Z" fill="#407BFF"/>
<path opacity="0.7" d="M461.322 92.5401V83.0593C469.342 83.0287 477.146 85.6536 483.517 90.5244C489.888 95.3953 494.468 102.238 496.541 109.985C498.615 117.732 498.065 125.948 494.979 133.35C491.892 140.752 486.443 146.924 479.48 150.903L474.746 142.694C479.902 139.758 483.94 135.196 486.228 129.721C488.516 124.246 488.925 118.168 487.391 112.436C485.857 106.704 482.466 101.642 477.75 98.0424C473.033 94.4425 467.256 92.5076 461.322 92.5401Z" fill="black"/>
</g>
<defs>
<filter id="filter0_dddddd" x="0" y="0" width="656.48" height="489.195" filterUnits="userSpaceOnUse" color-interpolation-filters="sRGB">
<feFlood flood-opacity="0" result="BackgroundImageFix"/>
<feColorMatrix in="SourceAlpha" type="matrix" values="0 0 0 0 0 0 0 0 0 0 0 0 0 0 0 0 0 0 127 0"/>
<feOffset dy="4"/>
<feGaussianBlur stdDeviation="2"/>
<feColorMatrix type="matrix" values="0 0 0 0 0 0 0 0 0 0 0 0 0 0 0 0 0 0 0.25 0"/>
<feBlend mode="normal" in2="BackgroundImageFix" result="effect1_dropShadow"/>
<feColorMatrix in="SourceAlpha" type="matrix" values="0 0 0 0 0 0 0 0 0 0 0 0 0 0 0 0 0 0 127 0"/>
<feOffset dy="4"/>
<feGaussianBlur stdDeviation="2"/>
<feColorMatrix type="matrix" values="0 0 0 0 0 0 0 0 0 0 0 0 0 0 0 0 0 0 0.25 0"/>
<feBlend mode="normal" in2="effect1_dropShadow" result="effect2_dropShadow"/>
<feColorMatrix in="SourceAlpha" type="matrix" values="0 0 0 0 0 0 0 0 0 0 0 0 0 0 0 0 0 0 127 0"/>
<feOffset dy="4"/>
<feGaussianBlur stdDeviation="2"/>
<feColorMatrix type="matrix" values="0 0 0 0 0 0 0 0 0 0 0 0 0 0 0 0 0 0 0.25 0"/>
<feBlend mode="normal" in2="effect2_dropShadow" result="effect3_dropShadow"/>
<feColorMatrix in="SourceAlpha" type="matrix" values="0 0 0 0 0 0 0 0 0 0 0 0 0 0 0 0 0 0 127 0"/>
<feOffset dy="4"/>
<feGaussianBlur stdDeviation="2"/>
<feColorMatrix type="matrix" values="0 0 0 0 0 0 0 0 0 0 0 0 0 0 0 0 0 0 0.25 0"/>
<feBlend mode="normal" in2="effect3_dropShadow" result="effect4_dropShadow"/>
<feColorMatrix in="SourceAlpha" type="matrix" values="0 0 0 0 0 0 0 0 0 0 0 0 0 0 0 0 0 0 127 0"/>
<feOffset dy="4"/>
<feGaussianBlur stdDeviation="2"/>
<feColorMatrix type="matrix" values="0 0 0 0 0 0 0 0 0 0 0 0 0 0 0 0 0 0 0.25 0"/>
<feBlend mode="normal" in2="effect4_dropShadow" result="effect5_dropShadow"/>
<feColorMatrix in="SourceAlpha" type="matrix" values="0 0 0 0 0 0 0 0 0 0 0 0 0 0 0 0 0 0 127 0"/>
<feOffset dy="4"/>
<feGaussianBlur stdDeviation="2"/>
<feColorMatrix type="matrix" values="0 0 0 0 0 0 0 0 0 0 0 0 0 0 0 0 0 0 0.25 0"/>
<feBlend mode="normal" in2="effect5_dropShadow" result="effect6_dropShadow"/>
<feBlend mode="normal" in="SourceGraphic" in2="effect6_dropShadow" result="shape"/>
</filter>
</defs>
</svg>
